<svg width="105" height="36" viewBox="0 0 105 36" fill="none" xmlns="http://www.w3.org/2000/svg">
<path d="M7 25.5273L10.889 0.626952C10.9987 -0.0762947 11.9404 -0.235047 12.275 0.393127L16.2483 7.85651L17.8274 4.84399C18.1067 4.30511 18.8948 4.30664 19.1771 4.84399L22.0911 10.4069L25.8284 6.66235C26.2413 6.24847 26.9493 6.47668 27.0431 7.05383L30.0374 25.5005L19.5491 31.35C19.2249 31.5309 18.8599 31.6257 18.4886 31.6257C18.1174 31.6256 17.7523 31.5306 17.4282 31.3496L7 25.5273Z" fill="#8DE6FF"/>
<path d="M12.608 35.5527C11.9495 35.9204 11.1461 35.9202 10.4871 35.5522L0.142822 29.8136L0.05896 29.9023L10.4872 35.7247C11.1461 36.0927 11.9489 36.0927 12.608 35.7252L23.0964 29.8757L23.0707 29.7177L12.608 35.5527Z" fill="#8DE6FF"/>
<path d="M36.1937 22.8182H37.9788V16.8632H43.6837V15.1932H37.9788V10.6332H44.2937V8.92621H36.1937V22.8182Z" fill="#8DE6FF"/>
<path d="M46.3622 11.2842C46.4209 11.2919 46.4802 11.2952 46.5397 11.2942C46.8887 11.2942 47.1857 11.1702 47.4318 10.9242C47.5514 10.8089 47.6459 10.6702 47.7096 10.5167C47.7732 10.3632 47.8046 10.1983 47.8018 10.0322C47.804 9.86615 47.7723 9.70142 47.7087 9.54803C47.6451 9.39465 47.5509 9.25586 47.4318 9.1402C47.3164 9.02057 47.1777 8.92602 47.0243 8.86236C46.9185 8.81854 46.8073 8.78998 46.6941 8.7774C46.6429 8.77173 46.5913 8.76929 46.5397 8.7702C46.3737 8.76794 46.209 8.79956 46.0555 8.86316C45.9022 8.92682 45.7634 9.02106 45.6477 9.1402C45.5281 9.25549 45.4336 9.39423 45.3699 9.54767C45.3063 9.70117 45.2749 9.86609 45.2777 10.0322C45.2754 10.1982 45.3071 10.363 45.3707 10.5164C45.4343 10.6697 45.5286 10.8085 45.6477 10.9242C45.7631 11.0438 45.9017 11.1384 46.0552 11.202C46.1537 11.2429 46.257 11.2704 46.3622 11.2842Z" fill="#8DE6FF"/>
<path d="M45.6467 22.8182H47.4318V13.3112H45.6467V22.8182Z" fill="#8DE6FF"/>
<path d="M49.4988 22.8182H51.2847V17.6192C51.2847 16.7912 51.5347 16.1222 52.0317 15.6112C52.5287 15.1002 53.1017 14.8452 53.7488 14.8452C54.1487 14.8452 54.4657 14.8812 54.6987 14.9812L55.3787 13.3112C55.0157 13.1562 54.5787 13.0782 54.0387 13.0782C53.4988 13.0782 52.9617 13.2472 52.3987 13.5832C51.8357 13.9192 51.4628 14.3462 51.2827 14.8632H51.2057V13.3112H49.4988V22.8182Z" fill="#8DE6FF"/>
<path fill-rule="evenodd" clip-rule="evenodd" d="M56.5707 21.6822C57.4697 22.6402 58.6367 23.1182 60.0728 23.1182L60.0778 23.1192C61.1127 23.1192 61.9867 22.8702 62.6978 22.3722C63.4087 21.8742 63.9307 21.2562 64.2307 20.5192L62.6307 19.8592C62.1777 20.9462 61.3107 21.4892 60.0308 21.4892C59.6483 21.4929 59.2689 21.4211 58.9142 21.278C58.5596 21.1348 58.2366 20.9232 57.9637 20.6552C57.3757 20.0992 57.0557 19.3422 57.0037 18.3852H64.5038L64.5237 18.0552C64.5237 16.5152 64.1017 15.2862 63.2538 14.3682C62.4058 13.4502 61.2677 12.9902 59.8677 12.9902C58.5208 12.9902 57.3848 13.4882 56.5208 14.4842C55.6567 15.4802 55.2207 16.6702 55.2207 18.0542C55.2207 19.5162 55.6718 20.7242 56.5707 21.6822ZM61.8857 15.3662C62.3447 15.8582 62.5928 16.3752 62.6327 16.9182L62.6217 16.9192H57.1217C57.3037 16.2192 57.6367 15.6622 58.1217 15.2492C58.6067 14.8362 59.1787 14.6292 59.8387 14.6292C60.7438 14.6292 61.4268 14.8742 61.8857 15.3662Z" fill="#8DE6FF"/>
<path fill-rule="evenodd" clip-rule="evenodd" d="M69.0458 22.6522C69.6207 22.9632 70.2708 23.1182 70.9957 23.1182L71.0067 23.1112C72.2357 23.1112 73.2947 22.6162 74.1887 21.6562C75.0828 20.6962 75.5287 19.4832 75.5287 18.0562C75.5287 16.6292 75.0707 15.4262 74.1887 14.4562C73.3068 13.4862 72.2367 13.0012 71.0067 13.0012C70.2827 13.0012 69.6417 13.1572 69.0568 13.4672C68.4717 13.7772 68.0417 14.1652 67.7567 14.6312H67.6787L67.7567 13.3112V8.92621H65.9717V22.8082H67.6787V21.4882H67.7457C68.0397 21.9542 68.4707 22.3412 69.0458 22.6522ZM72.8297 20.5482C72.2357 21.1742 71.5237 21.4882 70.6957 21.4882V21.4902C69.8547 21.4902 69.1407 21.1792 68.5518 20.5582C67.9628 19.9372 67.6687 19.1032 67.6687 18.0552C67.6687 17.0072 67.9637 16.1822 68.5518 15.5522C68.8214 15.2524 69.1525 15.0142 69.5225 14.8538C69.8925 14.6933 70.2926 14.6143 70.6957 14.6222C71.5227 14.6222 72.2357 14.9352 72.8297 15.5622C73.4237 16.1892 73.7217 17.0202 73.7217 18.0552C73.7217 19.0902 73.4237 19.9222 72.8297 20.5482Z" fill="#8DE6FF"/>
<path fill-rule="evenodd" clip-rule="evenodd" d="M77.6768 22.2452C78.3557 22.8182 79.2087 23.1182 80.2087 23.1182L80.2167 23.1292C81.5878 23.1292 82.6288 22.5852 83.3407 21.4992H83.4187V22.8192H85.1157V17.0762C85.1157 15.7832 84.7147 14.7802 83.9127 14.0692C83.1107 13.3582 82.1017 13.0022 80.8857 13.0022C79.8257 13.0022 78.9728 13.2462 78.3257 13.7302C77.6787 14.2142 77.2457 14.7402 77.0258 15.3102L78.6558 16.0082C78.8127 15.579 79.1191 15.2208 79.5187 14.9992C79.9387 14.7522 80.4077 14.6292 80.9258 14.6292C81.6248 14.6292 82.2137 14.8392 82.6918 15.2592C83.1697 15.6792 83.4097 16.2372 83.4097 16.9372V17.2092C82.7377 16.8212 81.8777 16.6272 80.8297 16.6272C79.6517 16.6272 78.6627 16.9212 77.8597 17.5102C77.0568 18.0992 76.6567 18.9102 76.6567 19.9452C76.6567 20.8932 76.9977 21.6722 77.6768 22.2452ZM82.5167 20.6632C81.9158 21.2132 81.2457 21.4882 80.5087 21.4882V21.4902C79.9907 21.4902 79.5327 21.3542 79.1307 21.0822C78.7288 20.8102 78.5287 20.4422 78.5287 19.9762C78.5287 19.4712 78.7488 19.0312 79.1887 18.6562C79.6288 18.2812 80.2817 18.0932 81.1487 18.0932C82.1587 18.0932 82.9147 18.2992 83.4187 18.7132C83.4187 19.4632 83.1177 20.1132 82.5167 20.6632Z" fill="#8DE6FF"/>
<path d="M87.6787 22.3422C88.3717 22.8582 89.2488 23.1182 90.3087 23.1182L90.3207 23.1282C91.4197 23.1282 92.3197 22.8432 93.0177 22.2742C93.7157 21.7052 94.0657 20.9942 94.0657 20.1402C94.0657 19.5072 93.8538 18.9372 93.4258 18.4332C92.9977 17.9292 92.3378 17.5732 91.4457 17.3662L89.5637 16.9202C88.7238 16.7262 88.3037 16.3572 88.3037 15.8142C88.3037 15.4392 88.4838 15.1522 88.8467 14.9222C89.2097 14.6922 89.6567 14.5922 90.1868 14.5922C91.2858 14.5922 92.0098 15.0122 92.3597 15.8522L93.9117 15.2122C93.6267 14.5002 93.1448 13.9442 92.4948 13.5722C91.8447 13.2002 91.0847 13.0002 90.2448 13.0002C89.2217 13.0002 88.3387 13.2622 87.5947 13.7862C86.8507 14.3102 86.4788 14.9932 86.4788 15.8332C86.4788 16.5812 86.7477 17.1452 87.2908 17.5782C87.8337 18.0112 88.4097 18.3062 89.0177 18.4612L90.9377 18.9272C91.8047 19.1472 92.2377 19.5672 92.2377 20.1872C92.2377 20.5872 92.0597 20.9102 91.7037 21.1572C91.3478 21.4042 90.8917 21.5272 90.3357 21.5272C89.1207 21.5272 88.2598 20.9422 87.7557 19.7422L86.1558 20.4022C86.4769 21.1757 87.0035 21.8466 87.6787 22.3422Z" fill="#8DE6FF"/>
<path fill-rule="evenodd" clip-rule="evenodd" d="M96.3137 21.6822C97.2117 22.6402 98.3798 23.1182 99.8157 23.1182L99.8397 23.1192C100.875 23.1192 101.749 22.8702 102.46 22.3722C103.171 21.8742 103.693 21.2562 103.993 20.5192L102.393 19.8592C101.94 20.9462 101.073 21.4892 99.7927 21.4892C99.4104 21.4927 99.0312 21.4208 98.6768 21.2778C98.3223 21.1346 97.9994 20.9231 97.7267 20.6552C97.1387 20.0992 96.8168 19.3422 96.7667 18.3852H104.267V18.0552C104.267 16.5152 103.845 15.2862 102.997 14.3682C102.149 13.4502 101.011 12.9902 99.6107 12.9902C98.2637 12.9902 97.1277 13.4882 96.2637 14.4842C95.3998 15.4802 94.9637 16.6702 94.9637 18.0542C94.9637 19.5162 95.4158 20.7242 96.3137 21.6822ZM101.629 15.3662C102.088 15.8582 102.336 16.3752 102.376 16.9182L102.365 16.9202H96.8647C97.0468 16.2202 97.3798 15.6642 97.8647 15.2502C98.3413 14.8392 98.9525 14.6181 99.5817 14.6292C100.487 14.6292 101.17 14.8742 101.629 15.3662Z" fill="#8DE6FF"/>
</svg>
