<svg width="629" height="881" viewBox="0 0 629 881" fill="none" xmlns="http://www.w3.org/2000/svg">
<path d="M8.2503 6.91381C18.3295 -2.52264 34.15 -2.00161 43.5865 8.07757L314.5 297.444L585.414 8.07757C594.851 -2.00161 610.671 -2.52264 620.75 6.91381C630.83 16.3503 631.351 32.1708 621.914 42.25L333.087 350.75C328.083 356.094 321.286 358.751 314.5 358.662C307.715 358.751 300.917 356.094 295.914 350.75L7.08654 42.25C-2.34991 32.1708 -1.82888 16.3503 8.2503 6.91381Z" fill="#8DE6FF"/>
<path d="M43.5865 266.078C34.15 255.998 18.3295 255.477 8.2503 264.914C-1.82888 274.35 -2.34991 290.171 7.08654 300.25L294.585 607.33C295.507 608.6 296.562 609.801 297.75 610.914C307.83 620.35 323.65 619.829 333.087 609.75L621.914 301.25C631.351 291.171 630.83 275.35 620.75 265.914C610.671 256.477 594.851 256.998 585.414 267.078L314.968 555.944L43.5865 266.078Z" fill="#8DE6FF"/>
<path d="M43.5865 530.078C34.15 519.998 18.3295 519.477 8.2503 528.914C-1.82888 538.35 -2.34991 554.171 7.08654 564.25L295.914 872.75C300.917 878.094 307.715 880.751 314.5 880.662C321.286 880.751 328.083 878.094 333.087 872.75L621.914 564.25C631.351 554.171 630.83 538.35 620.75 528.914C610.671 519.477 594.851 519.998 585.414 530.078L314.5 819.444L43.5865 530.078Z" fill="#8DE6FF"/>
</svg>
