<svg width="87" height="65" viewBox="0 0 87 65" fill="none" xmlns="http://www.w3.org/2000/svg">
<path fill-rule="evenodd" clip-rule="evenodd" d="M6.54054 25.9104C4.83414 24.5074 2.31345 24.7533 0.910413 26.4597C-0.492623 28.1661 -0.246702 30.6868 1.45969 32.0898L40.2803 64.009C41.1785 64.7475 42.3023 65.0292 43.37 64.8814C44.4377 65.0292 45.5615 64.7475 46.4597 64.009L85.2803 32.0898C86.9867 30.6868 87.2326 28.1661 85.8296 26.4597C84.4265 24.7533 81.9058 24.5074 80.1994 25.9104L43.37 56.1924L6.54054 25.9104ZM6.54054 0.910429C4.83414 -0.492601 2.31345 -0.246683 0.910413 1.45971C-0.492623 3.16611 -0.246702 5.6868 1.45969 7.08983L40.2803 39.009C41.1785 39.7475 42.3023 40.0292 43.37 39.8814C44.4377 40.0292 45.5615 39.7475 46.4597 39.009L85.2803 7.08983C86.9867 5.6868 87.2326 3.16611 85.8296 1.45971C84.4265 -0.246683 81.9058 -0.492601 80.1994 0.910429L43.37 31.1924L6.54054 0.910429Z" />
</svg>
