<svg width="30" height="30" viewBox="0 0 30 30" fill="none" xmlns="http://www.w3.org/2000/svg">
<g clip-path="url(#clip0_79_99)">
<path d="M9.66211 1.44126C9.21094 0.351419 8.02148 -0.228659 6.88477 0.0818876L1.72852 1.48814C0.708984 1.76939 0 2.69517 0 3.74986C0 18.2459 11.7539 29.9999 26.25 29.9999C27.3047 29.9999 28.2305 29.2909 28.5117 28.2713L29.918 23.1151C30.2285 21.9784 29.6484 20.7889 28.5586 20.3377L22.9336 17.994C21.9785 17.5956 20.8711 17.871 20.2207 18.6737L17.8535 21.5624C13.7285 19.6112 10.3887 16.2713 8.4375 12.1463L11.3262 9.78501C12.1289 9.12876 12.4043 8.0272 12.0059 7.07212L9.66211 1.44712V1.44126Z" fill="#8DE6FF"/>
</g>
<defs>
<clipPath id="clip0_79_99">
<rect width="30" height="30" fill="white"/>
</clipPath>
</defs>
</svg>
