<svg width="23" height="30" viewBox="0 0 23 30" fill="none" xmlns="http://www.w3.org/2000/svg">
<g clip-path="url(#clip0_79_97)">
<path d="M12.6387 29.25C15.6445 25.4883 22.5 16.3711 22.5 11.25C22.5 5.03906 17.4609 0 11.25 0C5.03906 0 0 5.03906 0 11.25C0 16.3711 6.85547 25.4883 9.86133 29.25C10.582 30.1465 11.918 30.1465 12.6387 29.25ZM11.25 15C9.18164 15 7.5 13.3184 7.5 11.25C7.5 9.18164 9.18164 7.5 11.25 7.5C13.3184 7.5 15 9.18164 15 11.25C15 13.3184 13.3184 15 11.25 15Z" fill="#8DE6FF"/>
</g>
<defs>
<clipPath id="clip0_79_97">
<rect width="22.5" height="30" fill="white"/>
</clipPath>
</defs>
</svg>
