<svg width="120" height="60" viewBox="0 0 120 60" fill="none" xmlns="http://www.w3.org/2000/svg">
<path d="M52.7161 18.2004H70.0032V25.4296H59.9452V32.6588H70.0032V39.8879H52.7161V18.2004Z" fill="white"/>
<path d="M73.4607 18.2004H90.7478V24.4866H80.6898V25.7439H90.7478V40.2022H73.4607V33.6017H83.5186V32.3444H73.4607V18.2004Z" fill="white"/>
<path d="M94.2051 18.2004H111.492V24.4866H101.434V25.7439H111.492V40.2022H94.2051V33.6017H104.263V32.3444H94.2051V18.2004Z" fill="white"/>
<path d="M41.5623 46.9589L25.791 51.3312L10.0632 46.9651L6.55835 7.65381H45.0709L41.5623 46.9589Z" fill="#264DE4"/>
<path d="M25.8147 47.9893L38.5586 44.4562L41.557 10.8682H25.8147V47.9893Z" fill="#2965F1"/>
<path d="M25.8147 25.448H14.5933L15.0254 30.2693H25.8147V25.448Z" fill="#EBEBEB"/>
<path d="M25.7979 15.6895H13.7249L14.1631 20.5109H25.8146V15.6895H25.7979Z" fill="#EBEBEB"/>
<path d="M25.7935 37.9753L20.4239 36.5254L20.0806 32.6802H17.4714H15.2407L15.9162 40.2504L25.7924 42.9921L25.8146 42.986V37.9697L25.7935 37.9753Z" fill="#EBEBEB"/>
<path d="M32.5916 20.5109L32.1529 25.448H25.7979V30.2693H31.7348L31.1752 36.5223L25.7979 37.9737V42.9897L35.6819 40.2503L35.7544 39.4358L36.8874 26.7427L37.005 25.448L37.8754 15.6895H25.7979V20.5109H32.5916Z" fill="white"/>
</svg>
