<svg width="25" height="25" viewBox="0 0 25 25" fill="none" xmlns="http://www.w3.org/2000/svg">
<g clip-path="url(#clip0_16_518)">
<path d="M12.5 25C19.4043 25 25 19.4043 25 12.5C25 5.5957 19.4043 0 12.5 0C5.5957 0 0 5.5957 0 12.5C0 19.4043 5.5957 25 12.5 25ZM12.5 6.25C13.1494 6.25 13.6719 6.77246 13.6719 7.42188V12.8906C13.6719 13.54 13.1494 14.0625 12.5 14.0625C11.8506 14.0625 11.3281 13.54 11.3281 12.8906V7.42188C11.3281 6.77246 11.8506 6.25 12.5 6.25ZM14.0625 17.1875C14.0625 18.0518 13.3643 18.75 12.5 18.75C11.6357 18.75 10.9375 18.0518 10.9375 17.1875C10.9375 16.3232 11.6357 15.625 12.5 15.625C13.3643 15.625 14.0625 16.3232 14.0625 17.1875Z" fill="#FF4343"/>
</g>
<defs>
<clipPath id="clip0_16_518">
<rect width="25" height="25" fill="white"/>
</clipPath>
</defs>
</svg>
