<svg width="120" height="60" viewBox="0 0 120 60" fill="none" xmlns="http://www.w3.org/2000/svg">
<path d="M67.0299 26.27C65.3299 26.27 64.0619 27.105 64.0619 29.115C64.0619 30.615 64.8969 31.68 66.9369 31.68C68.6669 31.68 69.8419 30.66 69.8419 29.052C69.8419 27.227 68.7919 26.27 67.0299 26.27ZM63.6299 40.46C63.2269 40.954 62.8259 41.48 62.8259 42.085C62.8259 43.32 64.4009 43.693 66.5659 43.693C68.3589 43.693 70.8009 43.568 70.8009 41.9C70.8009 40.91 69.6259 40.848 68.1409 40.755L63.6409 40.447L63.6299 40.46ZM72.7799 26.362C73.3349 27.075 73.9239 28.062 73.9239 29.485C73.9239 32.915 71.2239 34.925 67.3399 34.925C66.3399 34.925 65.4649 34.8 64.8969 34.647L63.8769 36.272L66.9069 36.457C72.2569 36.797 75.4069 36.953 75.4069 41.062C75.4069 44.618 72.2869 46.624 66.9069 46.624C61.3119 46.624 59.1799 45.202 59.1799 42.749C59.1799 41.359 59.7999 40.616 60.8799 39.595C59.8599 39.165 59.5199 38.391 59.5199 37.557C59.5199 36.877 59.8599 36.257 60.4169 35.682L62.3329 33.827C60.8179 33.087 59.6729 31.477 59.6729 29.202C59.6729 25.647 62.0229 23.206 66.7529 23.206C68.0829 23.206 68.8869 23.329 69.5979 23.516H75.6259V26.143L72.7809 26.359M81.0629 20.744C79.3129 20.744 78.2809 19.724 78.2809 17.96C78.2809 16.196 79.3009 15.24 81.0629 15.24C82.8559 15.24 83.8759 16.2 83.8759 17.96C83.8759 19.72 82.8559 20.744 81.0639 20.744H81.0629ZM77.0629 39.322V36.882L78.6409 36.666C79.0729 36.604 79.1359 36.511 79.1359 36.046V26.96C79.1359 26.62 79.0429 26.404 78.7329 26.31L77.0629 25.723L77.4029 23.221H83.8029V36.051C83.8029 36.546 83.8329 36.607 84.2979 36.671L85.8729 36.887V39.325H77.0599M98.1099 38.125C96.7799 38.775 94.8319 39.375 93.0699 39.375C89.3899 39.375 87.9999 37.893 87.9999 34.398V26.298C87.9999 26.113 87.9999 25.988 87.7499 25.988H85.5999V23.238C88.3199 22.938 89.4029 21.568 89.7429 18.198H92.6799V22.588C92.6799 22.803 92.6799 22.898 92.9279 22.898H97.2879V25.988H92.6699V33.363C92.6699 35.188 93.1039 35.898 94.7699 35.898C95.6359 35.898 96.5199 35.682 97.2739 35.404L98.1089 38.124" fill="white"/>
<path d="M45.67 29.25L27.138 10.72C26.072 9.65305 24.341 9.65305 23.273 10.72L19.426 14.568L24.306 19.448C25.441 19.065 26.741 19.323 27.643 20.225C28.0737 20.6564 28.3744 21.2003 28.5107 21.7944C28.6471 22.3885 28.6136 23.009 28.414 23.585L33.118 28.289C34.243 27.897 35.5681 28.152 36.4781 29.059C36.8824 29.4625 37.1732 29.9654 37.3213 30.517C37.4694 31.0687 37.4694 31.6496 37.3215 32.2013C37.1736 32.753 36.8828 33.256 36.4786 33.6595C36.0744 34.0631 35.571 34.353 35.019 34.5C34.4677 34.6479 33.8871 34.648 33.3357 34.5001C32.7843 34.3523 32.2815 34.0619 31.878 33.6581C30.923 32.7021 30.688 31.298 31.171 30.121L26.796 25.746V37.291C27.096 37.445 27.398 37.648 27.656 37.906C28.926 39.176 28.926 41.2341 27.656 42.5061C27.3542 42.8083 26.9958 43.048 26.6012 43.2116C26.2066 43.3752 25.7837 43.4594 25.3565 43.4594C24.9294 43.4594 24.5065 43.3752 24.1119 43.2116C23.7173 43.048 23.3589 42.8083 23.057 42.5061C21.787 41.2331 21.787 39.176 23.057 37.906C23.3618 37.6015 23.7237 37.3602 24.122 37.196V25.546C23.747 25.386 23.372 25.1521 23.057 24.8461C22.6006 24.3899 22.2903 23.8083 22.1657 23.1751C22.041 22.542 22.1076 21.8862 22.357 21.291L17.545 16.4781L4.83005 29.163C4.31893 29.6765 4.03198 30.3715 4.03198 31.0961C4.03198 31.8206 4.31893 32.5156 4.83005 33.029L23.363 51.559C24.429 52.626 26.16 52.626 27.228 51.559L45.67 33.1161C46.1812 32.6026 46.4681 31.9076 46.4681 31.1831C46.4681 30.4585 46.1812 29.7635 45.67 29.25" fill="#F03C2E"/>
</svg>
