<svg width="30" height="30" viewBox="0 0 30 30" fill="none" xmlns="http://www.w3.org/2000/svg">
<g clip-path="url(#clip0_47_110)">
<path d="M8.71518 26.2499H2.49554V8.72451H8.71518V26.2499ZM5.60201 6.33389C3.61317 6.33389 2 4.89248 2 3.15225C2 2.31635 2.3795 1.51469 3.055 0.923617C3.73051 0.332547 4.6467 0.000488281 5.60201 0.000488281C6.55732 0.000488281 7.47351 0.332547 8.14901 0.923617C8.82452 1.51469 9.20402 2.31635 9.20402 3.15225C9.20402 4.89248 7.59018 6.33389 5.60201 6.33389ZM31.9933 26.2499H25.7871V17.7187C25.7871 15.6854 25.7402 13.078 22.5533 13.078C19.3196 13.078 18.8241 15.287 18.8241 17.5722V26.2499H12.6112V8.72451H18.5763V11.1151H18.6634C19.4937 9.73818 21.5221 8.28506 24.5482 8.28506C30.8429 8.28506 32 11.912 32 16.6229V26.2499H31.9933Z" fill="#8DE6FF"/>
</g>
<defs>
<clipPath id="clip0_47_110">
<rect width="30" height="30" fill="white"/>
</clipPath>
</defs>
</svg>
