<svg width="30" height="30" viewBox="0 0 30 30" fill="none" xmlns="http://www.w3.org/2000/svg">
<g clip-path="url(#clip0_78_11)">
<path d="M18.75 0C17.7129 0 16.875 0.837891 16.875 1.875C16.875 2.91211 17.7129 3.75 18.75 3.75H23.5957L11.8008 15.5508C11.0684 16.2832 11.0684 17.4727 11.8008 18.2051C12.5332 18.9375 13.7227 18.9375 14.4551 18.2051L26.25 6.4043V11.25C26.25 12.2871 27.0879 13.125 28.125 13.125C29.1621 13.125 30 12.2871 30 11.25V1.875C30 0.837891 29.1621 0 28.125 0H18.75ZM4.6875 1.875C2.09766 1.875 0 3.97266 0 6.5625V25.3125C0 27.9023 2.09766 30 4.6875 30H23.4375C26.0273 30 28.125 27.9023 28.125 25.3125V18.75C28.125 17.7129 27.2871 16.875 26.25 16.875C25.2129 16.875 24.375 17.7129 24.375 18.75V25.3125C24.375 25.8281 23.9531 26.25 23.4375 26.25H4.6875C4.17188 26.25 3.75 25.8281 3.75 25.3125V6.5625C3.75 6.04688 4.17188 5.625 4.6875 5.625H11.25C12.2871 5.625 13.125 4.78711 13.125 3.75C13.125 2.71289 12.2871 1.875 11.25 1.875H4.6875Z" fill="#8DE6FF"/>
</g>
<defs>
<clipPath id="clip0_78_11">
<rect width="30" height="30" fill="white"/>
</clipPath>
</defs>
</svg>
