<svg width="82" height="87" viewBox="0 0 82 87" fill="none" xmlns="http://www.w3.org/2000/svg">
<path fill-rule="evenodd" clip-rule="evenodd" d="M41.9565 0.24354C41.3602 -0.0811787 40.6398 -0.0811787 40.0435 0.24354L1.93841 20.9935C1.2952 21.3438 0.894882 22.0176 0.894882 22.75V64.25C0.894882 64.9824 1.2952 65.6562 1.93841 66.0065L40.0435 86.7565C40.6398 87.0812 41.3602 87.0812 41.9565 86.7565L80.0616 66.0065C80.7048 65.6562 81.1051 64.9824 81.1051 64.25V22.75C81.1051 22.0176 80.7048 21.3438 80.0616 20.9935L41.9565 0.24354ZM4.89488 63.0618V23.9382L41 4.27731L77.1051 23.9382V63.0618L41 82.7227L4.89488 63.0618ZM24.98 35.004C24.428 33.828 23.936 32.844 23.504 32.052H18.14C17.9 33.708 17.672 35.568 17.456 37.632C17.264 39.672 17.084 41.808 16.916 44.04C16.772 46.248 16.628 48.468 16.484 50.7C16.364 52.932 16.256 55.032 16.16 57H21.632C21.704 54.576 21.8 51.936 21.92 49.08C22.04 46.224 22.22 43.344 22.46 40.44C22.892 41.448 23.372 42.564 23.9 43.788C24.428 45.012 24.944 46.236 25.448 47.46C25.976 48.684 26.48 49.86 26.96 50.988C27.44 52.092 27.848 53.04 28.184 53.832H32.108C32.444 53.04 32.852 52.092 33.332 50.988C33.812 49.86 34.304 48.684 34.808 47.46L36.392 43.788C36.92 42.564 37.4 41.448 37.832 40.44C38.072 43.344 38.252 46.224 38.372 49.08C38.492 51.936 38.588 54.576 38.66 57H44.132C44.036 55.032 43.916 52.932 43.772 50.7C43.652 48.468 43.508 46.248 43.34 44.04C43.196 41.808 43.016 39.672 42.8 37.632C42.608 35.568 42.392 33.708 42.152 32.052H37.04C36.608 32.844 36.104 33.828 35.528 35.004C34.976 36.156 34.388 37.416 33.764 38.784C33.164 40.128 32.564 41.508 31.964 42.924C31.364 44.34 30.8 45.672 30.272 46.92C29.744 45.672 29.18 44.34 28.58 42.924C27.98 41.508 27.368 40.128 26.744 38.784C26.144 37.416 25.556 36.156 24.98 35.004ZM57.9366 52.536C57.4326 52.656 56.7846 52.716 55.9926 52.716C54.4086 52.716 53.0646 52.56 51.9606 52.248C50.8806 51.912 49.9686 51.54 49.2246 51.132L47.6406 55.596C47.9766 55.788 48.3846 55.992 48.8646 56.208C49.3686 56.424 49.9566 56.628 50.6286 56.82C51.3246 57.012 52.1166 57.168 53.0046 57.288C53.8926 57.432 54.8886 57.504 55.9926 57.504C59.2806 57.504 61.7406 56.868 63.3726 55.596C65.0046 54.3 65.8206 52.488 65.8206 50.16C65.8206 48.96 65.6646 47.94 65.3526 47.1C65.0406 46.26 64.5606 45.528 63.9126 44.904C63.2886 44.28 62.4966 43.74 61.5366 43.284C60.5766 42.804 59.4486 42.324 58.1526 41.844C57.5286 41.628 56.9526 41.424 56.4246 41.232C55.9206 41.016 55.4646 40.788 55.0566 40.548C54.6726 40.284 54.3726 39.996 54.1566 39.684C53.9406 39.372 53.8326 38.988 53.8326 38.532C53.8326 37.764 54.1206 37.2 54.6966 36.84C55.2966 36.456 56.2686 36.264 57.6126 36.264C58.8126 36.264 59.8326 36.408 60.6726 36.696C61.5366 36.96 62.3166 37.272 63.0126 37.632L64.6326 33.204C63.8406 32.772 62.8326 32.376 61.6086 32.016C60.3846 31.656 58.9326 31.476 57.2526 31.476C55.8366 31.476 54.5646 31.656 53.4366 32.016C52.3086 32.352 51.3486 32.844 50.5566 33.492C49.7646 34.14 49.1526 34.932 48.7206 35.868C48.2886 36.78 48.0726 37.812 48.0726 38.964C48.0726 40.116 48.2766 41.1 48.6846 41.916C49.0926 42.708 49.6206 43.392 50.2686 43.968C50.9166 44.52 51.6486 44.988 52.4646 45.372C53.2806 45.732 54.0966 46.056 54.9126 46.344C56.7846 46.968 58.1046 47.556 58.8726 48.108C59.6406 48.636 60.0246 49.308 60.0246 50.124C60.0246 50.508 59.9646 50.856 59.8446 51.168C59.7246 51.48 59.5086 51.756 59.1966 51.996C58.8846 52.212 58.4646 52.392 57.9366 52.536Z" fill="#8CF8FF"/>
</svg>
