<svg width="120" height="60" viewBox="0 0 120 60" fill="none" xmlns="http://www.w3.org/2000/svg">
<path d="M16.147 5.15399L17.237 7.20399C17.4743 7.57378 17.7505 7.91707 18.061 8.22799C18.974 9.14099 19.843 10.098 20.621 11.123C22.469 13.55 23.716 16.245 24.607 19.163C25.141 20.945 25.431 22.771 25.453 24.619C25.543 30.142 23.649 34.885 19.819 38.827C19.1984 39.4519 18.5282 40.0254 17.815 40.542C17.435 40.542 17.258 40.242 17.102 39.985C16.802 39.485 16.634 38.938 16.545 38.382C16.411 37.714 16.322 37.046 16.367 36.355V36.043C16.345 35.976 16.011 5.31099 16.144 5.15499L16.147 5.15399Z" fill="#599636"/>
<path d="M16.147 5.08799C16.102 4.99799 16.057 5.06599 16.013 5.10999C16.035 5.55499 15.879 5.95599 15.633 6.33499C15.366 6.71499 15.009 7.00299 14.653 7.31499C12.671 9.02999 11.113 11.101 9.86503 13.417C8.21703 16.535 7.34903 19.875 7.10503 23.394C6.99503 24.664 7.50503 29.14 7.90703 30.431C8.99703 33.861 10.957 36.733 13.507 39.227C14.131 39.827 14.799 40.385 15.489 40.919C15.689 40.919 15.712 40.741 15.756 40.607C15.8438 40.3226 15.9106 40.0321 15.956 39.738C16.156 38.625 16.268 37.511 16.401 36.398L16.156 5.08799H16.147Z" fill="#6CAC48"/>
<path d="M17.24 41.9C17.285 41.388 17.54 40.965 17.797 40.542C17.53 40.432 17.329 40.208 17.173 39.962C17.039 39.739 16.928 39.462 16.839 39.227C16.527 38.292 16.459 37.312 16.371 36.354V35.774C16.261 35.864 16.237 36.62 16.237 36.732C16.17 37.756 16.037 38.759 15.837 39.738C15.77 40.138 15.727 40.54 15.481 40.896C15.481 40.941 15.481 40.986 15.503 41.052C15.903 42.232 16.015 43.435 16.083 44.66V45.105C16.083 45.639 16.061 45.528 16.506 45.705C16.684 45.772 16.886 45.795 17.063 45.928C17.197 45.928 17.219 45.818 17.219 45.728L17.152 44.993V42.943C17.13 42.587 17.197 42.23 17.242 41.896L17.24 41.9Z" fill="white"/>
<path d="M34.1507 32.5864V34.7072C34.1483 34.7912 34.1531 34.8753 34.165 34.9584C34.1926 35.2096 34.3468 35.3628 34.5734 35.4333C34.785 35.4889 34.9998 35.5309 35.2168 35.5589C35.3424 35.5732 35.3842 35.6283 35.3985 35.7631C35.4128 36.2379 35.3709 36.2941 34.9104 36.2655C33.8362 36.2093 32.761 36.196 31.6867 36.2655H31.5846C31.2497 36.2798 31.2221 36.2512 31.2221 35.9163C31.2221 35.8601 31.2364 35.7907 31.2364 35.7345C31.2364 35.6324 31.3059 35.5813 31.4039 35.5813C31.6285 35.5538 31.8368 35.4976 32.0472 35.4557C32.3402 35.3863 32.5067 35.2045 32.5353 34.9115C32.5761 34.5908 32.5761 34.2559 32.5761 33.9343L32.5904 30.1949C32.595 30.0864 32.5687 29.9789 32.5144 29.8849C32.4602 29.7909 32.3803 29.7142 32.2841 29.6639C32.0316 29.5236 31.7645 29.4113 31.4876 29.329C31.4039 29.3014 31.3201 29.2881 31.2507 29.2453C31.0465 29.1472 31.0414 28.9665 31.2364 28.8542C31.3058 28.8133 31.3896 28.7847 31.4733 28.7704C32.3202 28.6454 33.1522 28.435 33.9567 28.1424C34.1242 28.0863 34.166 28.1016 34.1813 28.268C34.1956 28.3701 34.1813 28.4927 34.167 28.5887C34.1395 28.7704 34.1395 28.9512 34.1395 29.1197C34.1395 29.1891 34.1538 29.2595 34.2232 29.3014C34.2926 29.3433 34.3631 29.3014 34.4274 29.2606C34.7205 29.0359 35.0136 28.8276 35.3342 28.6479C35.7937 28.3967 36.2838 28.1731 36.8148 28.1036C37.4581 28.0199 38.0146 28.1874 38.5038 28.606C38.706 28.787 38.8841 28.9933 39.0337 29.2197C39.1736 29.4239 39.1869 29.4291 39.3686 29.2892C39.8996 28.8981 40.4572 28.5499 41.0576 28.2987C41.6856 28.0332 42.3279 27.9923 42.9691 28.2149C43.6247 28.4518 44.0719 28.9124 44.3374 29.5404C44.5621 30.0427 44.6581 30.5615 44.6581 31.1027V34.842C44.6581 35.0932 44.7602 35.2505 45.0073 35.373C45.2728 35.4751 45.5658 35.5262 45.8446 35.5823C46.0264 35.6232 46.0264 35.6232 46.0264 35.807C45.9988 36.2665 45.9569 36.2951 45.5097 36.2665C44.3897 36.2037 43.2671 36.2037 42.1471 36.2665C41.9225 36.2808 41.9225 36.2808 41.9102 36.0572V35.9877C41.8959 35.6099 41.8959 35.6099 42.2594 35.5282L42.6219 35.4302C42.7448 35.4013 42.8543 35.3319 42.9328 35.2332C43.0113 35.1344 43.0544 35.0121 43.0549 34.8859L43.0957 33.8393L43.0682 31.1047C43.0575 30.8606 43.0057 30.6199 42.915 30.393C42.5658 29.5414 41.7989 29.235 41.0586 29.3188C40.5 29.3749 40.012 29.5975 39.5514 29.9192C39.4534 29.9886 39.384 30.0724 39.3983 30.2123C39.5239 31.1057 39.4391 31.9992 39.4544 32.8917V34.8318C39.4544 35.181 39.5943 35.3485 39.9292 35.4322L40.5726 35.5721C40.6706 35.5864 40.7257 35.6283 40.7257 35.7396V35.8417C40.7114 36.2328 40.6849 36.2502 40.2928 36.2461C39.1767 36.1899 38.0596 36.2052 36.9578 36.2461C36.58 36.2604 36.5493 36.2185 36.5667 35.8376C36.581 35.613 36.6075 35.6007 36.8179 35.5589L37.2774 35.4751C37.6858 35.3914 37.8359 35.2382 37.8635 34.8053L37.9044 33.8699L37.8768 31.0649C37.8492 30.7157 37.7747 30.3807 37.5837 30.0601C37.305 29.5434 36.8689 29.2789 36.2716 29.2504C35.6712 29.2095 35.1412 29.4321 34.6378 29.7099C34.2886 29.9141 34.1354 30.1561 34.163 30.5615V32.5986L34.1507 32.5864ZM60.4416 32.6711V34.6388C60.4438 34.7788 60.453 34.9185 60.4692 35.0575C60.4751 35.1501 60.511 35.2384 60.5714 35.3089C60.6318 35.3794 60.7134 35.4284 60.8041 35.4486C61.0449 35.5188 61.2929 35.5609 61.5434 35.5742C61.6833 35.5885 61.7108 35.6436 61.7251 35.7559V35.854C61.7108 36.3421 61.6557 36.3982 61.1809 36.3707C60.1189 36.3012 59.06 36.3145 57.9991 36.3707L57.5906 36.3849C57.5069 36.3849 57.4885 36.3441 57.465 36.2869C57.4242 36.0937 57.4242 35.894 57.465 35.7008C57.4793 35.6171 57.5344 35.5987 57.6182 35.5752C57.8224 35.5476 57.996 35.5058 58.19 35.4731C58.5392 35.3894 58.6648 35.2484 58.6781 34.887L58.7189 33.7147V30.2817C58.7189 30.0305 58.6209 29.8773 58.3983 29.765C58.1471 29.6251 57.8816 29.5281 57.6018 29.4301C57.5181 29.4025 57.4344 29.3739 57.3649 29.332C57.1832 29.2065 57.1607 29.0257 57.3374 28.8858C57.4166 28.8207 57.5139 28.7815 57.6161 28.7735C58.5096 28.6336 59.3745 28.4386 60.2118 28.1036C60.3099 28.0628 60.3517 28.0893 60.3936 28.1731C60.4355 28.2568 60.4498 28.3548 60.4344 28.4518L60.3936 29.1074C60.3936 29.1911 60.3527 29.3116 60.4212 29.3443C60.5049 29.4005 60.5611 29.2749 60.6305 29.2422C61.0425 28.8966 61.4977 28.6058 61.9845 28.3773C62.4175 28.1731 62.8627 28.0424 63.3661 28.071C64.3014 28.1271 64.9713 28.6019 65.4032 29.425C65.6279 29.8579 65.7239 30.3317 65.7657 30.8208L65.8066 31.842L65.8209 34.9258C65.8352 35.1627 65.9189 35.3169 66.1558 35.4006C66.4014 35.4824 66.6535 35.5432 66.9094 35.5823C67.134 35.6099 67.1463 35.6518 67.1606 35.8611V35.9306C67.133 36.4054 67.1044 36.4186 66.6296 36.3901C65.5885 36.3342 64.5451 36.3342 63.5039 36.3901C63.364 36.4044 63.2252 36.3901 63.0955 36.4044C63.0117 36.4044 62.9556 36.3901 62.9423 36.3063C62.9147 36.1246 62.8862 35.9438 62.928 35.7478C62.9423 35.664 62.9842 35.6222 63.0812 35.6079L63.7245 35.5058C63.9491 35.4496 64.0737 35.3015 64.1023 35.0973L64.1299 34.7062L64.1156 31.7899C64.1156 31.455 64.1013 31.12 64.0319 30.7851C63.8644 30.0703 63.3201 29.5598 62.5819 29.4883C61.9385 29.4188 61.3565 29.5863 60.8235 29.9345C60.558 30.102 60.4457 30.3389 60.4457 30.6319V32.7395C60.4457 32.6987 60.4457 32.6987 60.46 32.6987L60.4416 32.6711Z" fill="white"/>
<path d="M101.313 28.7214C101.16 27.7023 100.782 26.7956 100.127 26.0001C99.5556 25.2974 98.8163 24.7502 97.9773 24.4092C97.0992 24.0467 96.1628 23.9344 95.2142 23.9068C94.8231 23.8925 89.4928 23.9762 89.1017 23.9068C89.0037 23.8925 88.9343 23.9211 88.8771 24.0048C88.8076 24.1069 88.7372 24.2142 88.6953 24.3255C88.5278 24.7033 88.5278 24.6747 88.9322 24.7298C89.2671 24.786 89.5878 24.8136 89.9094 24.9116C90.2025 25.0096 90.4118 25.1771 90.4813 25.4977C90.5088 25.6509 90.5374 30.5625 90.5374 32.8519L90.4813 34.4857C90.467 34.6113 90.4537 34.7369 90.4118 34.8482C90.3557 35.0156 90.2587 35.1545 90.0912 35.226C89.9069 35.3127 89.7082 35.3646 89.5051 35.3791C89.1272 35.42 89.0721 35.4353 88.9465 35.854L88.9057 36.0071C88.8781 36.1889 88.8914 36.2165 89.0731 36.2165L93.2454 36.2573L94.8792 36.2297L96.0096 36.0898C97.2932 35.8529 98.4379 35.322 99.414 34.4714C99.9717 33.9789 100.427 33.3814 100.754 32.713C101.145 31.9318 101.312 31.0792 101.354 30.2153C101.424 29.7272 101.395 29.2248 101.313 28.7224V28.7214ZM99.2895 30.7024C99.2333 31.5959 99.0526 32.4608 98.592 33.2419C98.0059 34.261 97.1686 34.9727 96.0106 35.2229C95.5082 35.325 95.0059 35.3761 94.479 35.3066C94.1011 35.2658 93.7397 35.2229 93.3904 35.0973C92.7625 34.8727 92.5388 34.4846 92.5255 33.872L92.5113 25.4579C92.5113 24.9555 92.7359 24.8452 93.0974 24.8299C93.6416 24.7891 94.2002 24.8023 94.7444 24.8575C95.3238 24.9135 95.8924 25.051 96.4334 25.2659C96.8353 25.4334 97.2076 25.6644 97.5362 25.9501C98.2898 26.5934 98.7922 27.4001 99.0679 28.3497C99.2925 29.1176 99.3334 29.8988 99.2925 30.6799L99.2895 30.7024ZM112.911 32.0707C112.911 31.987 112.911 31.9175 112.897 31.8338C112.771 31.0659 112.366 30.4798 111.739 30.0336C111.335 29.7405 110.874 29.5455 110.399 29.4056C110.316 29.378 110.246 29.3494 110.162 29.3361C110.177 29.2667 110.219 29.2524 110.26 29.2381C110.539 29.0982 110.805 28.945 111.042 28.7357C111.475 28.3732 111.756 27.926 111.906 27.3817C111.99 27.0886 111.99 26.7956 111.963 26.4882C111.94 26.1287 111.836 25.7788 111.66 25.4647C111.484 25.1506 111.239 24.8802 110.944 24.6737C110.3 24.1989 109.548 24.0038 108.767 23.9895C107.259 23.962 105.739 23.9895 104.233 23.9895C103.8 23.9895 103.368 24.0171 102.921 23.9487C102.837 23.9344 102.716 23.9078 102.655 24.0048C102.553 24.1866 102.43 24.3673 102.39 24.5767C102.375 24.6747 102.404 24.7298 102.515 24.7441L103.478 24.884C103.856 24.9402 104.121 25.1495 104.148 25.4844C104.175 25.7159 104.189 25.9488 104.189 26.1819L104.161 28.7908L104.147 33.9536C104.147 34.26 104.106 34.5541 104.049 34.8604C104.035 34.9577 103.994 35.0489 103.929 35.1232C103.865 35.1974 103.781 35.2515 103.686 35.2791C103.408 35.3628 103.142 35.4465 102.849 35.4465C102.771 35.4391 102.692 35.4585 102.626 35.5015C102.561 35.5446 102.511 35.6087 102.487 35.6834C102.43 35.809 102.384 35.9489 102.361 36.0745C102.333 36.242 102.375 36.2992 102.543 36.2787C102.668 36.2645 107.274 36.3768 108.139 36.293C108.655 36.2369 109.16 36.1674 109.673 36.0143C110.551 35.7355 111.362 35.3301 112.003 34.646C112.534 34.0874 112.841 33.4176 112.868 32.6364C112.909 32.4546 112.909 32.2739 112.909 32.0778L112.911 32.0707ZM106.143 26.3524L106.184 25.2363C106.184 25.027 106.268 24.93 106.477 24.8871C106.812 24.8177 107.147 24.8462 107.482 24.8595C107.817 24.8871 108.138 24.929 108.472 25.027C109.085 25.2087 109.561 25.558 109.841 26.1431C109.968 26.4091 110.034 26.6999 110.036 26.9947C110.05 27.3858 110.021 27.7626 109.868 28.1383C109.631 28.655 109.256 28.99 108.71 29.088C108.165 29.186 106.617 29.1442 106.38 29.1442C106.171 29.1442 106.156 29.1166 106.156 28.9073V27.5931C106.123 27.1844 106.118 26.774 106.141 26.3647L106.143 26.3524ZM110.677 33.8597C110.44 34.4877 110.007 34.9217 109.393 35.1565C109.059 35.2821 108.724 35.3608 108.372 35.3383C107.939 35.324 107.507 35.3383 107.076 35.2546C106.489 35.129 106.224 34.5704 106.182 34.166C106.113 33.4543 106.154 32.7283 106.141 32.1983V30.3562C106.141 30.1316 106.169 30.0632 106.407 30.0632L107.719 30.0775L108.612 30.1796C109.24 30.3195 109.812 30.5574 110.259 31.0445C110.622 31.4356 110.818 31.9094 110.86 32.426C110.901 32.9141 110.874 33.389 110.692 33.8495L110.677 33.8597Z" fill="white"/>
<path d="M75.2204 29.6557L75.5829 29.7119C75.974 29.7262 76.4345 29.5863 76.5734 29.042C76.65 28.7821 76.65 28.5055 76.5734 28.2456C76.4896 28.2456 76.4478 28.315 76.4059 28.3436C76.1966 28.511 75.9597 28.6091 75.7085 28.6366C75.2061 28.6928 74.7037 28.6642 74.2156 28.4835L73.5314 28.2466C73.0543 28.0903 72.5521 28.0245 72.0508 28.0526C71.3391 28.1087 70.6692 28.3456 70.0412 28.6806C69.3714 29.0431 68.8976 29.5873 68.6729 30.3276C68.5473 30.7606 68.533 31.2058 68.5892 31.653C68.7291 32.6721 69.2591 33.3839 70.2077 33.7606C70.2638 33.7749 70.3057 33.8015 70.3609 33.8168C70.4865 33.8862 70.5008 33.9567 70.3884 34.0537L70.0392 34.2906L69.2019 34.8073C68.9925 34.9329 68.965 35.0319 69.0344 35.2535C69.1175 35.5142 69.2721 35.7463 69.4806 35.9234C69.6721 36.0877 69.8891 36.2198 70.1229 36.3145C70.2761 36.3839 70.2761 36.4166 70.1372 36.5391L69.3408 37.111C69.0753 37.3152 68.8098 37.5194 68.5872 37.7808C68.4323 37.9465 68.3208 38.1478 68.2624 38.3668C68.2039 38.5859 68.2005 38.816 68.2522 39.0368C68.356 39.5212 68.6097 39.9606 68.9772 40.2928C69.3401 40.6288 69.7814 40.8686 70.2608 40.9902C71.0419 41.2149 71.8517 41.2271 72.6472 41.0739C73.7908 40.8646 74.7915 40.3591 75.5778 39.4973C76.122 38.9255 76.4427 38.2556 76.4713 37.4551C76.5017 36.9921 76.367 36.5333 76.091 36.1603C75.8151 35.7873 75.4157 35.5242 74.9641 35.4179L74.2105 35.278L71.9079 35.0738C71.6567 35.0595 71.4055 35.0177 71.1961 34.8921C70.9306 34.7246 70.8612 34.404 71.0287 34.1946C71.1543 34.0415 71.3074 33.9434 71.5035 33.9291L71.9497 33.8883C72.8322 33.7985 73.6607 33.4211 74.3075 32.8141C74.6529 32.4944 74.8998 32.0827 75.0192 31.6275C75.1867 31.0271 75.1867 30.4022 75.0468 29.7895C75.0059 29.6363 75.0192 29.622 75.2143 29.6496L75.2204 29.6557ZM71.7996 36.6065C71.8833 36.6208 71.9671 36.6065 72.0508 36.6065C72.6369 36.6341 73.2374 36.676 73.8092 36.8312C73.9959 36.8863 74.1779 36.9563 74.3534 37.0405C74.912 37.3468 75.1213 37.8778 75.0509 38.4497C74.9671 39.0776 74.6179 39.5239 74.0737 39.818C73.7112 40.0222 73.3058 40.111 72.8871 40.1529C72.7339 40.1672 72.594 40.1529 72.4409 40.1529C71.9528 40.1672 71.478 40.112 71.0174 39.916C70.6968 39.7904 70.4313 39.6096 70.1944 39.3574C69.7063 38.8693 69.4796 37.9758 70.2087 37.2498C70.6549 36.8414 71.1583 36.5524 71.7996 36.6065ZM73.3905 32.2524C73.0975 32.9917 72.4552 33.2154 71.8139 33.1173C71.2278 33.0336 70.7948 32.713 70.5171 32.182C70.1546 31.4703 70.0576 30.732 70.2659 29.9631C70.4191 29.3913 70.7683 28.9583 71.382 28.8603C72.1631 28.7204 72.9137 29.0002 73.3078 29.7813C73.512 30.1591 73.6009 30.6186 73.6009 31.2742C73.5866 31.5397 73.5314 31.9022 73.3915 32.2514L73.3905 32.2524ZM55.8088 31.3028C55.6832 30.5492 55.4044 29.8651 54.8878 29.2932C54.1199 28.4416 53.1437 28.0679 52.0409 28.0648C51.0779 28.0505 50.1722 28.3303 49.3614 28.8327C48.5644 29.3097 47.9801 30.0737 47.7287 30.9679C47.4918 31.7776 47.504 32.6017 47.6878 33.4237C48.1759 35.6293 49.8791 36.5769 51.9153 36.438C52.5157 36.3972 53.0875 36.2011 53.6308 35.9356C54.4405 35.5578 55.0266 34.9584 55.431 34.163C55.7516 33.5074 55.8905 32.809 55.8772 32.0135L55.8078 31.3018L55.8088 31.3028ZM53.8278 34.4009C53.728 34.7149 53.5389 34.993 53.2836 35.2012C53.0282 35.4093 52.7177 35.5386 52.3901 35.5731C51.7774 35.6569 51.2035 35.5037 50.6879 35.1402C50.3156 34.8663 50.0142 34.5075 49.8087 34.0935C49.2369 32.9213 49.1388 31.6939 49.4309 30.4379C49.5249 30.0492 49.7283 29.6956 50.017 29.4188C50.5337 28.944 51.1331 28.8327 51.804 28.9726C52.4473 29.1125 52.9344 29.4607 53.3357 29.9917C53.737 30.5227 53.9218 31.1353 54.0331 31.7786C54.0892 32.0993 54.0892 32.4342 54.1025 32.6435C54.1025 33.3134 54.0464 33.8689 53.837 34.4019L53.8278 34.4009ZM86.2996 31.4151C86.1975 30.6054 85.8952 29.8661 85.3224 29.2524C84.5688 28.4294 83.5916 28.0801 82.5041 28.0658C81.5687 28.0515 80.7038 28.317 79.9084 28.7776C79.0149 29.3085 78.4012 30.0611 78.1643 31.0802C77.8814 32.192 78 33.368 78.4992 34.4009C78.9587 35.3781 79.7409 36.0061 80.7743 36.2849C81.9179 36.5912 83.0075 36.4523 84.0674 35.9356C84.9885 35.4894 85.644 34.792 86.0208 33.8423C86.2455 33.2838 86.3272 32.6844 86.3414 31.9859C86.3557 31.8603 86.3272 31.6367 86.3006 31.4141L86.2996 31.4151ZM84.3737 34.2202C84.1491 34.9737 83.6763 35.4618 82.8809 35.5742C82.2947 35.6579 81.7372 35.518 81.2338 35.1831C80.8008 34.89 80.4945 34.4989 80.2709 34.0394C80.0197 33.5513 79.8798 33.0346 79.8246 32.5047C79.7409 31.8491 79.7409 31.2078 79.8941 30.5513C79.9233 30.4218 79.9653 30.2956 80.0197 30.1745C80.4108 29.1972 81.2756 28.751 82.2947 28.9746C82.9789 29.1278 83.4945 29.5056 83.8856 30.0775C84.2635 30.636 84.4442 31.2497 84.529 31.9155C84.5698 32.181 84.5851 32.4597 84.5698 32.6966C84.5698 33.2409 84.5289 33.7433 84.3656 34.2314L84.3737 34.2202Z" fill="white"/>
</svg>
