<svg width="100" height="30" viewBox="0 0 112 32" fill="none" xmlns="http://www.w3.org/2000/svg">
<path d="M102.784 11.3315C102.513 11.3315 102.249 11.3876 102.016 11.5196L94.6298 15.7848C94.1519 16.0601 93.8613 16.5803 93.8613 17.1335V25.6486C93.8613 26.2016 94.1519 26.7209 94.6298 26.9971L96.5586 28.1086C97.4958 28.5706 97.8415 28.5632 98.268 28.5632C99.6554 28.5632 100.447 27.7213 100.447 26.258V17.8573C100.447 17.7385 100.345 17.6535 100.228 17.6535H99.3028C99.1842 17.6535 99.0833 17.7407 99.0833 17.8573V26.2624C99.0833 26.911 98.4077 27.5635 97.3114 27.0152L95.3063 25.8391C95.2355 25.8005 95.1808 25.7301 95.1808 25.651V17.1359C95.1808 17.0552 95.2348 16.9729 95.3063 16.9321L102.677 12.6822C102.746 12.6425 102.828 12.6425 102.896 12.6822L110.266 16.9321C110.337 16.9742 110.392 17.0526 110.392 17.1359V25.651C110.392 25.7323 110.351 25.8156 110.282 25.8548L102.896 30.1048C102.831 30.1425 102.744 30.1425 102.677 30.1048L100.779 28.9758C100.723 28.9427 100.646 28.9453 100.591 28.9758C100.068 29.2726 99.9691 29.3071 99.478 29.4775C99.3571 29.5196 99.1729 29.5852 99.5408 29.7914L102.018 31.2516C102.254 31.388 102.517 31.4554 102.787 31.4554C103.06 31.4554 103.319 31.39 103.555 31.2516L110.941 27.0016C111.419 26.7235 111.71 26.2061 111.71 25.6532V17.1381C111.71 16.5849 111.419 16.0658 110.941 15.7894L103.555 11.5242C103.324 11.3921 103.058 11.3361 102.787 11.3361L102.784 11.3315ZM104.76 17.4162C102.657 17.4162 101.404 18.3113 101.404 19.7996C101.404 21.4124 102.647 21.8579 104.666 22.0575C107.081 22.294 107.269 22.6486 107.269 23.1239C107.269 23.9484 106.612 24.3 105.058 24.3C103.106 24.3 102.677 23.8127 102.533 22.8397C102.516 22.7356 102.436 22.6517 102.33 22.6517H101.371C101.313 22.6529 101.258 22.6765 101.217 22.7174C101.176 22.7582 101.152 22.8133 101.151 22.8711C101.151 24.1141 101.827 25.5839 105.056 25.5839C107.393 25.5839 108.741 24.6685 108.741 23.0592C108.741 21.4682 107.652 21.0382 105.385 20.7381C103.097 20.433 102.876 20.2869 102.876 19.7501C102.876 19.3073 103.061 18.7149 104.758 18.7149C106.273 18.7149 106.833 19.0418 107.063 20.0635C107.083 20.1594 107.168 20.2379 107.267 20.2379H108.226C108.285 20.2379 108.342 20.2017 108.383 20.1594C108.423 20.1143 108.451 20.0635 108.446 20.0025C108.297 18.2428 107.124 17.4151 104.761 17.4151L104.76 17.4162Z" fill="#83CD29"/>
<path d="M59.3624 0.169017C59.2799 0.169166 59.1989 0.190798 59.1273 0.231785C59.056 0.273472 58.9969 0.332999 58.9556 0.404503C58.9144 0.476007 58.8925 0.557021 58.8921 0.639562V12.6357C58.8921 12.7534 58.8372 12.8589 58.7352 12.918C58.6852 12.9471 58.6284 12.9625 58.5705 12.9625C58.5127 12.9625 58.4558 12.9471 58.4059 12.918L56.4457 11.789C56.3027 11.7063 56.1404 11.6627 55.9752 11.6627C55.81 11.6627 55.6478 11.7063 55.5048 11.789L47.6801 16.3051C47.3876 16.4738 47.2093 16.7985 47.2093 17.1361V26.1684C47.2091 26.3337 47.2525 26.4962 47.3351 26.6393C47.4177 26.7825 47.5366 26.9013 47.6799 26.9838L55.5048 31.5001C55.6477 31.583 55.81 31.6267 55.9752 31.6267C56.1405 31.6267 56.3028 31.583 56.4457 31.5001L64.2706 26.9838C64.4138 26.9013 64.5327 26.7825 64.6154 26.6393C64.698 26.4962 64.7414 26.3337 64.7411 26.1684V3.65027C64.7411 3.30766 64.5541 2.98619 64.2551 2.81924L59.5978 0.215875C59.5246 0.175119 59.4435 0.168145 59.3624 0.169017ZM9.02563 11.4438C8.87633 11.4499 8.73619 11.4758 8.60216 11.5536L0.77746 16.0697C0.63412 16.152 0.515112 16.2708 0.43251 16.414C0.349909 16.5572 0.306653 16.7197 0.307133 16.885L0.323043 29.007C0.323043 29.1757 0.410221 29.3322 0.558425 29.4145C0.703795 29.5017 0.884036 29.5017 1.02875 29.4145L5.67035 26.7486C5.96458 26.5743 6.15637 26.27 6.15637 25.9335V20.2724C6.15637 19.9345 6.33399 19.6251 6.62713 19.4572L8.60303 18.3126C8.74581 18.2296 8.90819 18.1862 9.07336 18.187C9.23861 18.1861 9.4011 18.2294 9.5439 18.3126L11.5189 19.4566C11.8116 19.6244 11.9893 19.9343 11.9893 20.2717V25.9326C11.9893 26.2696 12.1854 26.5756 12.4753 26.7477L17.1169 29.4137C17.2629 29.5008 17.4427 29.5008 17.5872 29.4137C17.731 29.3308 17.8226 29.1746 17.8226 29.0061L17.8383 16.8846C17.8392 16.7192 17.7961 16.5565 17.7135 16.4133C17.6308 16.27 17.5116 16.1513 17.3679 16.0693L9.54325 11.5534C9.41095 11.4758 9.27016 11.4497 9.11978 11.4436H9.02606L9.02563 11.4438ZM79.3402 11.5536C79.175 11.5532 79.0127 11.5965 78.8697 11.6792L71.0448 16.1955C70.7527 16.3644 70.574 16.6732 70.574 17.0106V26.0429C70.574 26.3825 70.7654 26.6902 71.06 26.858L78.8222 31.2823C79.1088 31.4458 79.4586 31.4582 79.7474 31.2976L84.4517 28.6787C84.601 28.5959 84.7019 28.4412 84.7024 28.2712C84.7028 28.1012 84.6145 27.9482 84.467 27.8636L76.5948 23.3474C76.4474 23.2632 76.3441 23.093 76.3441 22.9239V20.0995C76.3441 19.9308 76.4487 19.7761 76.5948 19.692L79.041 18.2805C79.1866 18.1964 79.3653 18.1964 79.5118 18.2805L81.9591 19.692C82.0307 19.7331 82.0902 19.7925 82.1315 19.8641C82.1728 19.9357 82.1945 20.0169 82.1942 20.0995V22.3263C82.194 22.4089 82.2157 22.4901 82.257 22.5617C82.2983 22.6333 82.3577 22.6927 82.4294 22.7338C82.5761 22.8184 82.7537 22.8188 82.9002 22.7338L87.5886 20.0058C87.8796 19.8367 88.0594 19.527 88.0594 19.1907V17.0112C88.0594 16.846 88.0159 16.6837 87.9333 16.5405C87.8507 16.3974 87.7319 16.2786 87.5888 16.1959L79.811 11.6796C79.668 11.5968 79.5056 11.5535 79.3404 11.5541L79.3402 11.5536ZM55.9437 18.2969C55.9875 18.2967 56.0307 18.3074 56.0693 18.3281L58.7507 19.8805C58.8234 19.9226 58.8762 20.0004 58.8762 20.0843V23.1891C58.8762 23.2735 58.8239 23.3511 58.7507 23.3929L56.0693 24.9453C55.9963 24.9867 55.9071 24.9867 55.8339 24.9453L53.1525 23.3929C53.0795 23.3508 53.027 23.273 53.027 23.1891V20.0838C53.027 19.9997 53.0797 19.9226 53.1525 19.8801L55.8339 18.3278C55.8705 18.3067 55.9028 18.2969 55.9437 18.2969Z" fill="white"/>
<path d="M32.5321 11.5064C32.3669 11.5061 32.2045 11.5494 32.0614 11.6319L24.2364 16.1325C23.944 16.3012 23.7661 16.6261 23.7661 16.9635V25.9958C23.7657 26.1611 23.809 26.3236 23.8915 26.4667C23.9741 26.6099 24.0931 26.7286 24.2364 26.811L32.0614 31.3272C32.2043 31.4102 32.3666 31.4539 32.5318 31.4539C32.697 31.4539 32.8593 31.4102 33.0022 31.3272L40.8271 26.811C40.9704 26.7285 41.0893 26.6097 41.1719 26.4665C41.2545 26.3233 41.2979 26.1609 41.2977 25.9956V16.9633C41.2977 16.6255 41.1198 16.3007 40.8269 16.1323L33.002 11.6317C32.859 11.5488 32.6965 11.5054 32.5313 11.5061L32.5321 11.5064ZM79.3251 19.5667C79.294 19.5667 79.2593 19.5667 79.231 19.5819L77.7256 20.4602C77.6976 20.4758 77.6741 20.4985 77.6576 20.526C77.6411 20.5535 77.6321 20.5849 77.6315 20.6169V22.342C77.6315 22.4069 77.6692 22.4662 77.7256 22.4989L79.231 23.3613C79.2568 23.3773 79.2867 23.3858 79.3171 23.3858C79.3475 23.3858 79.3773 23.3773 79.4032 23.3613L80.9085 22.4989C80.9643 22.4669 81.0027 22.4069 81.0027 22.342V20.6169C81.0027 20.552 80.9645 20.4927 80.9085 20.46L79.4032 19.5817C79.3753 19.5651 79.3561 19.5664 79.3247 19.5664L79.3251 19.5667Z" fill="#83CD29"/>
</svg>
