<svg width="40" height="40" viewBox="0 0 40 40" fill="none" xmlns="http://www.w3.org/2000/svg">
<path d="M8.33325 15V26.6667M8.74992 14.1667C10.1865 14.1667 11.5643 13.596 12.5801 12.5802C13.5959 11.5644 14.1666 10.1866 14.1666 8.75004C14.1666 7.31345 13.5959 5.9357 12.5801 4.91988C11.5643 3.90406 10.1865 3.33337 8.74992 3.33337C7.31333 3.33337 5.93558 3.90406 4.91976 4.91988C3.90393 5.9357 3.33325 7.31345 3.33325 8.75004C3.33325 10.1866 3.90393 11.5644 4.91976 12.5802C5.93558 13.596 7.31333 14.1667 8.74992 14.1667V14.1667ZM8.33325 36.6667C9.65933 36.6667 10.9311 36.1399 11.8688 35.2022C12.8065 34.2646 13.3333 32.9928 13.3333 31.6667C13.3333 30.3406 12.8065 29.0689 11.8688 28.1312C10.9311 27.1935 9.65933 26.6667 8.33325 26.6667C7.00717 26.6667 5.7354 27.1935 4.79772 28.1312C3.86004 29.0689 3.33325 30.3406 3.33325 31.6667C3.33325 32.9928 3.86004 34.2646 4.79772 35.2022C5.7354 36.1399 7.00717 36.6667 8.33325 36.6667V36.6667ZM31.6666 36.6667C32.9927 36.6667 34.2644 36.1399 35.2021 35.2022C36.1398 34.2646 36.6666 32.9928 36.6666 31.6667C36.6666 30.3406 36.1398 29.0689 35.2021 28.1312C34.2644 27.1935 32.9927 26.6667 31.6666 26.6667C30.3405 26.6667 29.0687 27.1935 28.1311 28.1312C27.1934 29.0689 26.6666 30.3406 26.6666 31.6667C26.6666 32.9928 27.1934 34.2646 28.1311 35.2022C29.0687 36.1399 30.3405 36.6667 31.6666 36.6667Z" stroke="#8DE6FF" stroke-width="1.5" stroke-linecap="round" stroke-linejoin="round"/>
<path d="M8.55005 15C8.92677 16.4537 9.7766 17.7407 10.9656 18.6581C12.1545 19.5754 13.615 20.071 15.1167 20.0667L20.8334 20.05C22.9077 20.044 24.9324 20.6843 26.626 21.8821C28.3196 23.0799 29.5979 24.7755 30.2834 26.7333" stroke="#8DE6FF" stroke-width="1.5" stroke-linecap="round" stroke-linejoin="round"/>
</svg>
