<svg width="34" height="36" viewBox="0 0 34 36" fill="none" xmlns="http://www.w3.org/2000/svg">
<path d="M24.3501 4.66669C27.5834 4.66669 30.1834 7.28336 30.1834 10.5C30.1834 13.65 27.6834 16.2167 24.5668 16.3334C24.4228 16.3167 24.2774 16.3167 24.1334 16.3334M27.5668 31.3334C28.7668 31.0834 29.9001 30.6 30.8334 29.8834C33.4334 27.9334 33.4334 24.7167 30.8334 22.7667C29.9168 22.0667 28.8001 21.6 27.6168 21.3334M12.2668 16.1167C12.1001 16.1 11.9001 16.1 11.7168 16.1167C9.80379 16.0517 7.99118 15.2448 6.66283 13.8666C5.33448 12.4885 4.59468 10.6474 4.60011 8.73336C4.60011 4.65002 7.90011 1.33336 12.0001 1.33336C13.9605 1.298 15.8547 2.04284 17.2659 3.40405C18.6771 4.76525 19.4898 6.6313 19.5251 8.59169C19.5605 10.5521 18.8156 12.4462 17.4544 13.8574C16.0932 15.2687 14.2272 16.0813 12.2668 16.1167ZM3.93345 22.2667C-0.0998861 24.9667 -0.0998861 29.3667 3.93345 32.05C8.51678 35.1167 16.0334 35.1167 20.6168 32.05C24.6501 29.35 24.6501 24.95 20.6168 22.2667C16.0501 19.2167 8.53345 19.2167 3.93345 22.2667V22.2667Z" stroke="#8DE6FF" stroke-width="1.5" stroke-linecap="round" stroke-linejoin="round"/>
</svg>
