<svg width="40" height="40" viewBox="0 0 40 40" fill="none" xmlns="http://www.w3.org/2000/svg">
<path d="M20.0001 13.15L18.2168 16.25C17.8168 16.9334 18.1501 17.5 18.9334 17.5H21.0501C21.8501 17.5 22.1668 18.0667 21.7668 18.75L20.0001 21.85" stroke="#8DE6FF" stroke-width="1.5" stroke-linecap="round" stroke-linejoin="round"/>
<path d="M14.1668 36.6667C17.9834 35.5833 22.0168 35.5833 25.8334 36.6667M13.8334 30.0667V28.1333C10.0001 25.8167 6.8501 21.3 6.8501 16.5C6.8501 8.25001 14.4334 1.78334 23.0001 3.65001C26.7668 4.48334 30.0668 6.98334 31.7834 10.4333C35.2668 17.4333 31.6001 24.8667 26.2168 28.1167V30.05C26.2168 30.5333 26.4001 31.65 24.6168 31.65H15.4334C13.6001 31.6667 13.8334 30.95 13.8334 30.0667V30.0667Z" stroke="#8DE6FF" stroke-width="1.5" stroke-linecap="round" stroke-linejoin="round"/>
</svg>
