<svg width="40" height="40" viewBox="0 0 40 40" fill="none" xmlns="http://www.w3.org/2000/svg">
<path d="M18.3333 3.33337H14.9999C6.66659 3.33337 3.33325 6.66671 3.33325 15V25C3.33325 33.3334 6.66659 36.6667 14.9999 36.6667H24.9999C33.3333 36.6667 36.6666 33.3334 36.6666 25V21.6667" stroke="#8DE6FF" stroke-width="1.5" stroke-linecap="round" stroke-linejoin="round"/>
<path d="M26.7334 5.03339L13.6 18.1667C13.1 18.6667 12.6 19.6501 12.5 20.3667L11.7834 25.3834C11.5167 27.2001 12.8 28.4667 14.6167 28.2167L19.6334 27.5001C20.3334 27.4001 21.3167 26.9001 21.8334 26.4001L34.9667 13.2667C37.2334 11.0001 38.3 8.36672 34.9667 5.03339C31.6334 1.70005 29 2.76672 26.7334 5.03339V5.03339Z" stroke="#8DE6FF" stroke-width="1.5" stroke-miterlimit="10" stroke-linecap="round" stroke-linejoin="round"/>
<path d="M24.8501 6.91663C25.4027 8.87907 26.4501 10.6667 27.8917 12.1084C29.3333 13.55 31.121 14.5973 33.0834 15.15" stroke="#8DE6FF" stroke-width="1.5" stroke-miterlimit="10" stroke-linecap="round" stroke-linejoin="round"/>
</svg>
