<svg width="40" height="40" viewBox="0 0 40 40" fill="none" xmlns="http://www.w3.org/2000/svg">
<path d="M26.5999 18.05H21.4999L20.2332 21.8667H24.0499C24.3848 21.8667 24.7164 21.9327 25.0257 22.0608C25.3351 22.189 25.6162 22.3768 25.853 22.6136C26.0898 22.8504 26.2776 23.1315 26.4058 23.4409C26.5339 23.7502 26.5999 24.0818 26.5999 24.4167C26.5999 24.7516 26.5339 25.0832 26.4058 25.3926C26.2776 25.7019 26.0898 25.983 25.853 26.2198C25.6162 26.4566 25.3351 26.6445 25.0257 26.7726C24.7164 26.9007 24.3848 26.9667 24.0499 26.9667H20.2332M15.8999 26.95V18.05L13.3999 20.8334M23.2999 7.45004L19.9999 3.33337" stroke="#8DE6FF" stroke-width="1.5" stroke-linecap="round" stroke-linejoin="round"/>
<path d="M31.8167 13C33.6667 15.4667 34.8167 18.5167 34.8167 21.85C34.8167 25.7796 33.2556 29.5483 30.477 32.327C27.6983 35.1056 23.9296 36.6667 20 36.6667C16.0704 36.6667 12.3017 35.1056 9.52305 32.327C6.74439 29.5483 5.18335 25.7796 5.18335 21.85C5.18335 17.9204 6.74439 14.1517 9.52305 11.373C12.3017 8.59436 16.0704 7.03333 20 7.03333C21.1333 7.03333 22.2333 7.18333 23.3 7.43333" stroke="#8DE6FF" stroke-width="1.5" stroke-linecap="round" stroke-linejoin="round"/>
</svg>
